<svg width="3779" height="8735" viewBox="0 0 3779 8735" fill="none" xmlns="http://www.w3.org/2000/svg">
<g clip-path="url(#clip0_695_2)">
<g filter="url(#filter0_f_695_2)">
<path d="M2514.38 214.93C2893.37 705.142 2901.18 690.769 3392.41 864.905C3635.81 951.185 3059.48 1435.12 2786.09 1044.5C2712.38 851.852 2425.35 441.115 2111.7 842.627C1793.23 1250.28 2266.53 -42.4877 1345 755.403C1620.51 382.254 2181.09 -216.184 2514.38 214.93Z" fill="url(#paint0_linear_695_2)"/>
</g>
<g filter="url(#filter1_f_695_2)">
<path d="M2651.38 2325.93C3030.37 2816.14 3038.18 2801.77 3529.41 2975.9C3772.81 3062.18 3196.48 3546.12 2923.09 3155.5C2849.38 2962.85 2562.35 2552.11 2248.7 2953.63C1930.23 3361.28 2403.53 2068.51 1482 2866.4C1757.51 2493.25 2318.09 1894.82 2651.38 2325.93Z" fill="url(#paint1_linear_695_2)"/>
</g>
<g filter="url(#filter2_f_695_2)">
<path d="M2412.96 4739.07C2714.68 5082.6 2720.89 5072.52 3111.97 5194.55C3305.74 5255.02 2846.92 5594.15 2629.27 5320.41C2570.59 5185.41 2342.08 4897.57 2092.38 5178.94C1838.84 5464.62 2215.64 4558.68 1482 5117.82C1701.34 4856.32 2147.62 4436.95 2412.96 4739.07Z" fill="url(#paint2_linear_695_2)"/>
</g>
<g filter="url(#filter3_f_695_2)">
<path d="M2412.96 6665.07C2714.68 7008.6 2720.89 6998.52 3111.97 7120.55C3305.74 7181.02 2846.92 7520.15 2629.27 7246.41C2570.59 7111.41 2342.08 6823.57 2092.38 7104.94C1838.84 7390.62 2215.64 6484.68 1482 7043.82C1701.34 6782.32 2147.62 6362.95 2412.96 6665.07Z" fill="url(#paint3_linear_695_2)"/>
</g>
<g filter="url(#filter4_f_695_2)">
<path d="M1215.94 1922.25C797.527 1499.05 792.407 1515.33 315.897 1437.96C79.7975 1399.62 540.642 787.364 847.744 1130.44C943.002 1312.15 1265.53 1672.98 1496.62 1198.67C1731.26 717.078 1480.57 2134.49 2214 1130.89C2013.93 1568.43 1583.91 2294.45 1215.94 1922.25Z" fill="url(#paint4_linear_695_2)" fill-opacity="0.5"/>
</g>
<g filter="url(#filter5_f_695_2)">
<path d="M1106.83 4087.21C735.311 3789.49 730.765 3800.94 307.66 3746.51C98.0217 3719.54 507.217 3288.82 779.9 3530.17C864.482 3658 1150.86 3911.85 1356.05 3578.17C1564.39 3239.37 1341.8 4236.52 1993.03 3530.49C1815.38 3838.3 1433.56 4349.05 1106.83 4087.21Z" fill="url(#paint5_linear_695_2)" fill-opacity="0.5"/>
</g>
<g filter="url(#filter6_f_695_2)">
<path d="M1002.83 6518.21C631.311 6220.49 626.765 6231.94 203.66 6177.51C-5.97833 6150.54 403.217 5719.82 675.9 5961.17C760.482 6089 1046.86 6342.85 1252.05 6009.17C1460.39 5670.37 1237.8 6667.52 1889.03 5961.49C1711.38 6269.3 1329.56 6780.05 1002.83 6518.21Z" fill="url(#paint6_linear_695_2)" fill-opacity="0.5"/>
</g>
</g>
<defs>
<filter id="filter0_f_695_2" x="1095" y="-185" width="2606" height="1629.86" filterUnits="userSpaceOnUse" color-interpolation-filters="sRGB">
<feFlood flood-opacity="0" result="BackgroundImageFix"/>
<feBlend mode="normal" in="SourceGraphic" in2="BackgroundImageFix" result="shape"/>
<feGaussianBlur stdDeviation="125" result="effect1_foregroundBlur_695_2"/>
</filter>
<filter id="filter1_f_695_2" x="1232" y="1926" width="2606" height="1629.86" filterUnits="userSpaceOnUse" color-interpolation-filters="sRGB">
<feFlood flood-opacity="0" result="BackgroundImageFix"/>
<feBlend mode="normal" in="SourceGraphic" in2="BackgroundImageFix" result="shape"/>
<feGaussianBlur stdDeviation="125" result="effect1_foregroundBlur_695_2"/>
</filter>
<filter id="filter2_f_695_2" x="1232" y="4384" width="2176.61" height="1291.78" filterUnits="userSpaceOnUse" color-interpolation-filters="sRGB">
<feFlood flood-opacity="0" result="BackgroundImageFix"/>
<feBlend mode="normal" in="SourceGraphic" in2="BackgroundImageFix" result="shape"/>
<feGaussianBlur stdDeviation="125" result="effect1_foregroundBlur_695_2"/>
</filter>
<filter id="filter3_f_695_2" x="1232" y="6310" width="2176.61" height="1291.78" filterUnits="userSpaceOnUse" color-interpolation-filters="sRGB">
<feFlood flood-opacity="0" result="BackgroundImageFix"/>
<feBlend mode="normal" in="SourceGraphic" in2="BackgroundImageFix" result="shape"/>
<feGaussianBlur stdDeviation="125" result="effect1_foregroundBlur_695_2"/>
</filter>
<filter id="filter4_f_695_2" x="0.958984" y="776.428" width="2463.04" height="1498.57" filterUnits="userSpaceOnUse" color-interpolation-filters="sRGB">
<feFlood flood-opacity="0" result="BackgroundImageFix"/>
<feBlend mode="normal" in="SourceGraphic" in2="BackgroundImageFix" result="shape"/>
<feGaussianBlur stdDeviation="125" result="effect1_foregroundBlur_695_2"/>
</filter>
<filter id="filter5_f_695_2" x="0" y="3207" width="2243.03" height="1202.5" filterUnits="userSpaceOnUse" color-interpolation-filters="sRGB">
<feFlood flood-opacity="0" result="BackgroundImageFix"/>
<feBlend mode="normal" in="SourceGraphic" in2="BackgroundImageFix" result="shape"/>
<feGaussianBlur stdDeviation="125" result="effect1_foregroundBlur_695_2"/>
</filter>
<filter id="filter6_f_695_2" x="-104" y="5638" width="2243.03" height="1202.5" filterUnits="userSpaceOnUse" color-interpolation-filters="sRGB">
<feFlood flood-opacity="0" result="BackgroundImageFix"/>
<feBlend mode="normal" in="SourceGraphic" in2="BackgroundImageFix" result="shape"/>
<feGaussianBlur stdDeviation="125" result="effect1_foregroundBlur_695_2"/>
</filter>
<linearGradient id="paint0_linear_695_2" x1="3611.98" y1="852.596" x2="2097.09" y2="-343.863" gradientUnits="userSpaceOnUse">
<stop stop-color="#FF0101" stop-opacity="0.7"/>
<stop offset="0.244792" stop-color="#FF5825" stop-opacity="0.85"/>
<stop offset="0.484375" stop-color="#FFB645"/>
<stop offset="0.75" stop-color="#F7A9B5"/>
<stop offset="1" stop-color="#D5ACE1"/>
</linearGradient>
<linearGradient id="paint1_linear_695_2" x1="3748.98" y1="2963.6" x2="2234.09" y2="1767.14" gradientUnits="userSpaceOnUse">
<stop stop-color="#FF0101" stop-opacity="0.7"/>
<stop offset="0.244792" stop-color="#FF5825" stop-opacity="0.85"/>
<stop offset="0.484375" stop-color="#FFB645"/>
<stop offset="0.75" stop-color="#F7A9B5"/>
<stop offset="1" stop-color="#D5ACE1"/>
</linearGradient>
<linearGradient id="paint2_linear_695_2" x1="3286.77" y1="5185.93" x2="2201.86" y2="4212.5" gradientUnits="userSpaceOnUse">
<stop stop-color="#FF0101" stop-opacity="0.7"/>
<stop offset="0.244792" stop-color="#FF5825" stop-opacity="0.85"/>
<stop offset="0.484375" stop-color="#FFB645"/>
<stop offset="0.75" stop-color="#F7A9B5"/>
<stop offset="1" stop-color="#D5ACE1"/>
</linearGradient>
<linearGradient id="paint3_linear_695_2" x1="3286.77" y1="7111.93" x2="2201.86" y2="6138.5" gradientUnits="userSpaceOnUse">
<stop stop-color="#FF0101" stop-opacity="0.7"/>
<stop offset="0.244792" stop-color="#FF5825" stop-opacity="0.85"/>
<stop offset="0.484375" stop-color="#FFB645"/>
<stop offset="0.75" stop-color="#F7A9B5"/>
<stop offset="1" stop-color="#D5ACE1"/>
</linearGradient>
<linearGradient id="paint4_linear_695_2" x1="115.772" y1="1495.46" x2="1735.34" y2="2294.18" gradientUnits="userSpaceOnUse">
<stop offset="0.135417" stop-color="#FF0B00"/>
<stop offset="0.489583" stop-color="#FCB445"/>
<stop offset="0.848958" stop-color="#D6AADF"/>
</linearGradient>
<linearGradient id="paint5_linear_695_2" x1="129.964" y1="3786.96" x2="1418.52" y2="4589.03" gradientUnits="userSpaceOnUse">
<stop offset="0.114583" stop-color="#D6AADF"/>
<stop offset="0.406" stop-color="#FCB445"/>
<stop offset="0.75" stop-color="#FF0B00"/>
</linearGradient>
<linearGradient id="paint6_linear_695_2" x1="25.9639" y1="6217.96" x2="1314.52" y2="7020.03" gradientUnits="userSpaceOnUse">
<stop offset="0.135417" stop-color="#D6AADF"/>
<stop offset="0.406" stop-color="#FCB445"/>
<stop offset="0.760417" stop-color="#FF0B00"/>
</linearGradient>
<clipPath id="clip0_695_2">
<rect width="3779" height="8735" fill="white"/>
</clipPath>
</defs>
</svg>
